<svg width="366" height="512" viewBox="0 0 366 512" fill="none" xmlns="http://www.w3.org/2000/svg">
<path d="M279.657 116.219C279.657 139.563 298.649 158.556 321.996 158.556C345.341 158.556 364.335 139.563 364.335 116.219C364.335 92.872 345.341 73.88 321.996 73.88C298.649 73.88 279.657 92.872 279.657 116.219ZM305.499 116.219C305.499 107.123 312.899 99.7213 321.996 99.7213C331.092 99.7213 338.492 107.123 338.492 116.219C338.492 125.313 331.092 132.715 321.996 132.715C312.899 132.715 305.499 125.313 305.499 116.219Z" fill="url(#paint0_linear_295_5591)"/>
<path d="M140.209 354.74C140.209 378.087 159.203 397.079 182.548 397.079C205.895 397.079 224.887 378.087 224.887 354.74C224.887 331.395 205.895 312.403 182.548 312.403C159.203 312.403 140.209 331.395 140.209 354.74ZM166.051 354.74C166.051 345.645 173.451 338.244 182.548 338.244C191.644 338.244 199.045 345.645 199.045 354.74C199.045 363.837 191.644 371.237 182.548 371.237C173.451 371.237 166.051 363.837 166.051 354.74Z" fill="url(#paint1_linear_295_5591)"/>
<path d="M1 114.9C1 138.247 19.9947 157.239 43.34 157.239C66.6867 157.239 85.6787 138.247 85.6787 114.9C85.6787 91.5534 66.6867 72.5614 43.34 72.5614C19.9947 72.5614 1 91.5534 1 114.9ZM26.8427 114.9C26.8427 105.803 34.2427 98.4027 43.34 98.4027C52.436 98.4027 59.836 105.803 59.836 114.9C59.836 123.996 52.436 131.397 43.34 131.397C34.2427 131.397 26.8427 123.996 26.8427 114.9Z" fill="url(#paint2_linear_295_5591)"/>
<path d="M240.684 148.229C232.501 152.949 223.852 156.601 214.963 159.152C184.935 167.852 152.08 164.217 124.395 148.229L122.225 146.972L122.208 146.988L109.304 169.351L111.475 170.608C129.392 180.945 149.067 187.06 169.084 188.956C173.564 189.385 178.06 189.593 182.557 189.593C184.487 189.593 186.433 189.559 188.363 189.472C190.912 189.369 193.463 189.197 196.012 188.956C216.015 187.079 235.705 180.961 253.605 170.608L255.793 169.351L242.889 146.972L240.684 148.229Z" fill="url(#paint3_linear_295_5591)"/>
<path d="M242.889 146.972L241.839 147.591L240.684 148.247C222.784 158.6 207.64 172.571 196.012 188.956C192.273 194.193 188.896 199.689 185.933 205.373C184.728 207.631 183.608 209.921 182.54 212.248C174.168 230.527 169.619 250.632 169.619 271.321V298.955C178.112 296.957 186.985 296.957 195.46 298.955V271.321C195.46 261.863 196.632 252.544 198.872 243.551C206.367 213.213 225.953 186.596 253.605 170.625L254.776 169.953L255.793 169.351L277.552 156.792C271.556 150.452 267.129 142.785 264.631 134.429L242.889 146.972Z" fill="url(#paint4_linear_295_5591)"/>
<path d="M240.684 148.229C232.501 152.949 223.852 156.602 214.963 159.151C206.039 166.886 198.045 175.673 191.103 185.458C190.155 186.785 189.241 188.111 188.363 189.473C190.913 189.369 193.463 189.197 196.012 188.955C207.641 172.571 222.784 158.599 240.684 148.246L241.839 147.591L242.889 146.971L240.684 148.229Z" fill="#B11FC2"/>
<path d="M87.5453 156.808L104.067 166.353L110.339 169.971L111.475 170.625C119.676 175.363 127.153 181.013 133.82 187.439C156.353 209.112 169.619 239.364 169.619 271.321V298.955C178.112 296.957 186.985 296.957 195.46 298.955V271.321C195.46 250.632 190.912 230.527 182.54 212.248C179.871 206.408 176.803 200.757 173.357 195.329C171.997 193.16 170.567 191.04 169.084 188.956C157.456 172.571 142.312 158.6 124.395 148.247L123.259 147.591L122.208 146.988L116.988 143.975L100.467 134.429C97.9693 142.785 93.524 150.468 87.5453 156.808Z" fill="url(#paint5_linear_295_5591)"/>
<path d="M188.018 209.732C187.346 208.268 186.657 206.82 185.934 205.374C184.728 207.631 183.608 209.922 182.54 212.247C190.913 230.527 195.461 250.631 195.461 271.322C195.461 261.864 196.632 252.543 198.872 243.551C196.649 231.956 193.014 220.655 188.018 209.732Z" fill="#B11FC2"/>
<path d="M102.843 46.016V118.391C102.843 123.887 102.016 129.277 100.467 134.429C97.9693 142.785 93.524 150.468 87.5454 156.808C83.8587 160.719 79.6027 164.112 74.848 166.869L12.1733 203.048V295.096L91.8867 341.112L154.544 304.933C159.316 302.177 164.399 300.179 169.619 298.955C178.112 296.957 186.985 296.957 195.46 298.955C200.68 300.179 205.764 302.177 210.535 304.933L273.209 341.112L352.923 295.096V203.048L290.248 166.869C285.495 164.112 281.221 160.703 277.552 156.792C271.556 150.452 267.129 142.785 264.631 134.429C263.08 129.277 262.253 123.887 262.253 118.391V46.016L182.54 0L102.843 46.016ZM38.016 280.176V217.967L87.7694 189.249C96.5387 184.184 104.136 177.62 110.339 169.971V169.953C115.8 163.235 120.159 155.672 123.259 147.591C123.259 147.591 123.259 147.575 123.276 147.575C126.791 138.392 128.685 128.52 128.685 118.391V60.936L182.54 29.8387L236.412 60.936V118.391C236.412 128.52 238.289 138.392 241.821 147.575L241.839 147.591C244.939 155.672 249.297 163.217 254.76 169.936C254.76 169.953 254.76 169.953 254.776 169.953C260.961 177.603 268.576 184.184 277.328 189.249L327.081 217.967V280.176L273.209 311.273L223.456 282.555C214.687 277.489 205.195 274.2 195.46 272.649C191.188 271.977 186.864 271.632 182.54 271.632C178.215 271.632 173.908 271.977 169.619 272.665C159.885 274.2 150.393 277.489 141.624 282.555L91.8867 311.273L38.016 280.176Z" fill="url(#paint6_linear_295_5591)"/>
<path d="M169.085 188.956C149.066 187.061 129.392 180.945 111.476 170.608L110.338 169.97L111.476 170.625C119.676 175.362 127.153 181.013 133.82 187.44C144.949 191.316 156.544 193.814 168.5 194.95C170.101 195.106 171.721 195.244 173.357 195.33C171.997 193.16 170.566 191.04 169.085 188.956Z" fill="#B11FC2"/>
<path d="M36.1579 449.434L25.5757 481.623H46.74L36.1579 449.434ZM32.631 434.222H44.9765L72.5362 510.064H56.001L50.9296 494.411H21.3861L16.5366 510.064H0L25.1349 439.292C26.4575 435.913 28.9547 434.222 32.631 434.222Z" fill="#A107EA"/>
<path d="M83.4008 510.064V481.623C83.4008 475.891 84.2442 471.078 85.9365 467.182C87.6246 463.289 89.9398 460.164 92.8822 457.812C95.6711 455.608 98.9448 453.991 102.692 452.962C106.441 451.934 110.299 451.418 114.267 451.418H115.369H116.471V467.073H111.401C107.136 467.073 103.978 468.101 101.92 470.157C99.8607 472.22 98.8339 475.449 98.8339 479.859V510.064H83.4008Z" fill="#A107EA"/>
<path d="M166.14 491.985H177.163C175.545 498.158 172.458 502.864 167.904 506.095C163.346 509.478 157.613 511.166 150.707 511.166C142.33 511.166 135.788 508.449 131.085 503.009C126.379 497.717 124.029 490.149 124.029 480.3C124.029 470.896 126.306 463.545 130.864 458.253C135.566 452.816 142.109 450.095 150.487 450.095C159.306 450.095 166.14 452.741 170.991 458.032C173.637 461.266 175.545 465.015 176.723 469.276H161.29C160.553 467.808 159.819 466.707 159.085 465.969C157.172 463.913 154.455 462.882 150.928 462.882C147.692 462.882 145.047 463.913 142.991 465.969C140.344 468.91 139.022 473.763 139.022 480.519C139.022 487.283 140.344 492.061 142.991 494.852C144.898 497.204 147.765 498.378 151.589 498.378C154.086 498.378 156.218 497.867 157.983 496.835C158.424 496.692 158.826 496.433 159.195 496.063C159.56 495.698 159.967 495.292 160.408 494.852C160.701 494.411 161.29 493.825 162.171 493.087C163.054 492.354 164.377 491.985 166.14 491.985Z" fill="#A107EA"/>
<path d="M238.076 451.418V485.812C238.076 496.249 235.354 503.085 229.919 506.316C224.479 509.55 218.526 511.167 212.061 511.167C205.74 510.87 199.969 509.11 194.754 505.876C189.535 502.644 186.926 495.953 186.926 485.812V451.418H202.359V488.898C202.359 492.426 203.386 495 205.447 496.615C207.503 498.234 209.856 499.039 212.502 499.039C215.147 499.039 217.535 498.234 219.667 496.615C221.796 495 222.864 492.426 222.864 488.898V458.914C222.864 456.857 223.559 455.094 224.959 453.623C226.354 452.156 228.156 451.418 230.36 451.418H238.076Z" fill="#A107EA"/>
<path d="M287.965 480.301C287.965 475.009 286.863 470.896 284.659 467.954C282.454 464.866 279.439 463.323 275.618 463.323C271.503 463.323 268.344 464.795 266.138 467.733C263.934 470.819 262.832 475.009 262.832 480.301C262.832 486.474 263.857 490.958 265.918 493.748C268.122 496.836 271.21 498.379 275.177 498.379C279.29 498.379 282.454 496.836 284.659 493.748C286.863 490.662 287.965 486.181 287.965 480.301ZM262.832 441.498V459.135C264.447 456.343 266.8 454.064 269.887 452.3C272.532 450.832 275.763 450.096 279.587 450.096C286.495 450.096 292.155 452.961 296.563 458.694C300.974 464.427 303.178 471.85 303.178 480.962C303.178 490.076 300.974 497.497 296.563 503.23C294.359 506.023 291.383 508.045 287.635 509.292C283.887 510.539 280.173 511.167 276.5 511.167C269.446 511.167 262.903 509.331 256.879 505.654C250.85 501.982 247.84 494.927 247.84 484.489V434H255.336C257.392 434 259.156 434.738 260.626 436.206C262.094 437.676 262.832 439.441 262.832 441.498Z" fill="#A107EA"/>
<path d="M327.492 474.788H349.98C349.683 470.819 348.658 467.882 346.894 465.97C344.981 463.913 342.264 462.882 338.735 462.882C335.501 462.882 332.855 463.913 330.798 465.97C328.738 468.029 327.637 470.967 327.492 474.788ZM353.949 491.985H364.972C363.353 498.158 360.267 502.864 355.713 506.095C351.155 509.479 345.422 511.167 338.515 511.167C330.137 511.167 323.595 508.449 318.894 503.009C314.188 497.717 311.838 490.149 311.838 480.301C311.838 470.896 314.115 463.545 318.673 458.253C323.375 452.816 329.917 450.096 338.295 450.096C347.113 450.096 353.949 452.741 358.799 458.033C363.5 463.472 365.854 471.04 365.854 480.741V482.284V483.166C365.854 483.903 365.779 484.418 365.634 484.711H327.492C327.637 489.267 328.738 492.648 330.798 494.85C332.707 497.204 335.574 498.379 339.398 498.379C341.894 498.379 344.027 497.867 345.791 496.836C346.231 496.691 346.635 496.433 347.004 496.063C347.369 495.698 347.776 495.293 348.217 494.85C348.36 494.411 348.912 493.825 349.869 493.087C350.824 492.355 352.185 491.985 353.949 491.985Z" fill="#A107EA"/>
<defs>
<linearGradient id="paint0_linear_295_5591" x1="279.657" y1="116.218" x2="364.334" y2="116.218" gradientUnits="userSpaceOnUse">
<stop stop-color="#DA22FF"/>
<stop offset="1.3e-07" stop-color="#DA22FF"/>
<stop offset="1" stop-color="#9733EE"/>
</linearGradient>
<linearGradient id="paint1_linear_295_5591" x1="140.21" y1="354.741" x2="224.887" y2="354.741" gradientUnits="userSpaceOnUse">
<stop stop-color="#DA22FF"/>
<stop offset="1.3e-07" stop-color="#DA22FF"/>
<stop offset="1" stop-color="#9733EE"/>
</linearGradient>
<linearGradient id="paint2_linear_295_5591" x1="1.00112" y1="114.9" x2="85.6784" y2="114.9" gradientUnits="userSpaceOnUse">
<stop stop-color="#DA22FF"/>
<stop offset="1.3e-07" stop-color="#DA22FF"/>
<stop offset="1" stop-color="#9733EE"/>
</linearGradient>
<linearGradient id="paint3_linear_295_5591" x1="268.34" y1="171.094" x2="74.4946" y2="161.596" gradientUnits="userSpaceOnUse">
<stop stop-color="#DA22FF"/>
<stop offset="1.3e-07" stop-color="#DA22FF"/>
<stop offset="1" stop-color="#9733EE"/>
</linearGradient>
<linearGradient id="paint4_linear_295_5591" x1="169.619" y1="216.692" x2="277.552" y2="216.692" gradientUnits="userSpaceOnUse">
<stop stop-color="#DA22FF"/>
<stop offset="1.3e-07" stop-color="#DA22FF"/>
<stop offset="1" stop-color="#9733EE"/>
</linearGradient>
<linearGradient id="paint5_linear_295_5591" x1="92.7875" y1="135.117" x2="193.164" y2="277.803" gradientUnits="userSpaceOnUse">
<stop stop-color="#DA22FF"/>
<stop offset="1.3e-07" stop-color="#DA22FF"/>
<stop offset="1" stop-color="#9733EE"/>
</linearGradient>
<linearGradient id="paint6_linear_295_5591" x1="12.1736" y1="170.556" x2="352.924" y2="170.556" gradientUnits="userSpaceOnUse">
<stop stop-color="#DA22FF"/>
<stop offset="1.3e-07" stop-color="#DA22FF"/>
<stop offset="1" stop-color="#9733EE"/>
</linearGradient>
</defs>
</svg>